<?xml version="1.0" encoding="utf-8"?>
<!-- Generator: Adobe Illustrator 25.0.1, SVG Export Plug-In . SVG Version: 6.00 Build 0)  -->
<svg version="1.1" id="Capa_1" xmlns="http://www.w3.org/2000/svg" xmlns:xlink="http://www.w3.org/1999/xlink" x="0px" y="0px"
	 viewBox="0 0 50 50" style="enable-background:new 0 0 50 50;" xml:space="preserve">
<style type="text/css">
	.st0{fill:#FFFFFF;}
</style>
<g>
	<path class="st0" d="M25.01,14.9c-5.58,0-10.09,4.52-10.09,10.09c0,5.58,4.52,10.09,10.09,10.09c5.58,0,10.09-4.52,10.09-10.09
		C35.1,19.41,30.58,14.9,25.01,14.9 M25.01,31.54c-3.62,0-6.55-2.93-6.55-6.55c0-3.62,2.93-6.55,6.55-6.55
		c3.62,0,6.55,2.93,6.55,6.55C31.56,28.61,28.63,31.54,25.01,31.54"/>
	<path class="st0" d="M33.11,5.46c-3.62-0.17-12.58-0.16-16.2,0c-3.18,0.15-5.99,0.92-8.25,3.18c-3.78,3.79-3.3,8.88-3.3,16.36
		c0,7.65-0.43,12.63,3.3,16.36c3.8,3.79,8.97,3.3,16.35,3.3c7.58,0,10.2,0,12.87-1.03c3.64-1.41,6.39-4.67,6.66-10.52
		c0.17-3.62,0.16-12.58,0-16.2C44.22,9.98,40.52,5.8,33.11,5.46 M38.84,38.84c-2.48,2.48-5.92,2.26-13.88,2.26
		c-8.2,0-11.48,0.12-13.88-2.28c-2.76-2.75-2.26-7.16-2.26-13.85c0-9.06-0.93-15.58,8.16-16.04c2.09-0.07,2.7-0.1,7.96-0.1
		l0.07,0.05c8.73,0,15.59-0.92,16,8.17c0.09,2.07,0.11,2.69,0.11,7.94C41.12,33.09,41.28,36.4,38.84,38.84"/>
	<path class="st0" d="M35.5,12.14c1.3,0,2.36,1.06,2.36,2.36c0,1.3-1.06,2.36-2.36,2.36c-1.3,0-2.36-1.06-2.36-2.36
		C33.14,13.2,34.2,12.14,35.5,12.14"/>
</g>
</svg>
