<?xml version="1.0" encoding="utf-8"?>
<!-- Generator: Adobe Illustrator 25.0.1, SVG Export Plug-In . SVG Version: 6.00 Build 0)  -->
<svg version="1.1" id="Capa_1" xmlns="http://www.w3.org/2000/svg" xmlns:xlink="http://www.w3.org/1999/xlink" x="0px" y="0px"
	 viewBox="0 0 50 50" style="enable-background:new 0 0 50 50;" xml:space="preserve">
<style type="text/css">
	.st0{fill:#FFFFFF;}
</style>
<g>
	<path class="st0" d="M41.62,41.63L41.62,41.63L41.62,41.63l0.01-12.2c0-5.97-1.29-10.56-8.26-10.56c-3.35,0-5.6,1.84-6.52,3.59
		h-0.1v-3.03h-6.61v22.2h6.89V30.64c0-2.9,0.55-5.7,4.14-5.7c3.53,0,3.59,3.3,3.59,5.88v10.81H41.62z"/>
	<rect x="8.92" y="19.43" class="st0" width="6.9" height="22.2"/>
	<path class="st0" d="M12.36,8.37c-2.2,0-3.99,1.79-3.99,3.99c0,2.2,1.79,4.03,3.99,4.03c2.2,0,3.99-1.83,3.99-4.03
		C16.36,10.16,14.57,8.37,12.36,8.37"/>
</g>
</svg>
