<?xml version="1.0" encoding="utf-8"?>
<!-- Generator: Adobe Illustrator 25.0.1, SVG Export Plug-In . SVG Version: 6.00 Build 0)  -->
<svg version="1.1" id="Capa_1" xmlns="http://www.w3.org/2000/svg" xmlns:xlink="http://www.w3.org/1999/xlink" x="0px" y="0px"
	 viewBox="0 0 163.24 49.52" style="enable-background:new 0 0 163.24 49.52;" xml:space="preserve">
<style type="text/css">
	.st0{fill:#11161A;}
	.st1{fill:#9E8958;}
</style>
<g>
	<g>
		<path class="st0" d="M17.35,47.24H10.7V47c0.6-0.06,1.02-0.16,1.25-0.32c0.42-0.28,0.63-0.66,0.63-1.15
			c0-0.29-0.09-0.68-0.28-1.17l-0.17-0.45l-0.97-2.51H6.7l-0.53,1.47l-0.25,0.66c-0.3,0.78-0.46,1.4-0.46,1.84
			c0,0.26,0.06,0.51,0.17,0.73c0.11,0.23,0.26,0.41,0.45,0.55c0.26,0.19,0.6,0.31,1.01,0.34v0.24H2.56V47
			c0.36-0.02,0.67-0.11,0.94-0.28c0.27-0.16,0.53-0.43,0.79-0.79c0.22-0.29,0.43-0.67,0.63-1.12c0.21-0.46,0.48-1.15,0.81-2.06
			l3.7-10.04h0.58l4.4,11.2c0.33,0.85,0.59,1.45,0.79,1.81s0.41,0.64,0.64,0.82c0.16,0.13,0.35,0.23,0.56,0.29
			c0.21,0.07,0.52,0.13,0.94,0.18V47.24z M10.99,40.96l-2.12-5.52l-2,5.52H10.99z"/>
		<path class="st0" d="M22.63,47.2l0.03-4.4l0.23,0.01c0.28,1.12,0.62,2,1.01,2.65c0.74,1.19,1.66,1.79,2.77,1.79
			c0.78,0,1.42-0.27,1.92-0.82c0.51-0.55,0.76-1.24,0.76-2.08c0-0.36-0.06-0.73-0.17-1.11c-0.11-0.38-0.26-0.7-0.45-0.97
			c-0.2-0.28-0.47-0.54-0.82-0.8c-0.35-0.26-0.9-0.58-1.62-0.97c-0.64-0.34-1.13-0.63-1.47-0.86c-0.34-0.23-0.62-0.47-0.82-0.71
			c-0.58-0.67-0.87-1.48-0.87-2.44c0-0.59,0.11-1.16,0.34-1.7c0.23-0.55,0.54-1.02,0.95-1.41c0.71-0.7,1.56-1.04,2.54-1.04
			c0.32,0,0.61,0.03,0.88,0.1c0.27,0.07,0.63,0.2,1.08,0.4c0.34,0.14,0.57,0.23,0.69,0.27c0.12,0.04,0.23,0.06,0.32,0.06
			c0.24,0,0.39-0.18,0.48-0.54h0.23l0.07,4.23h-0.23c-0.18-0.67-0.34-1.19-0.47-1.55c-0.13-0.36-0.29-0.69-0.47-1
			c-0.33-0.55-0.69-0.96-1.09-1.23c-0.4-0.27-0.86-0.4-1.37-0.4c-0.75,0-1.35,0.27-1.79,0.81c-0.18,0.22-0.33,0.48-0.43,0.78
			c-0.1,0.3-0.16,0.6-0.16,0.9c0,1.19,0.72,2.14,2.17,2.87l1.42,0.73c1.1,0.55,1.89,1.15,2.37,1.81c0.55,0.74,0.83,1.6,0.83,2.58
			c0,0.65-0.12,1.28-0.37,1.87c-0.35,0.83-0.88,1.47-1.58,1.92c-0.7,0.45-1.53,0.67-2.48,0.67c-0.87,0-1.71-0.18-2.51-0.54
			c-0.42-0.19-0.67-0.3-0.75-0.33c-0.08-0.03-0.17-0.04-0.27-0.04c-0.32,0-0.55,0.17-0.67,0.51H22.63z"/>
		<path class="st0" d="M37.84,47.2l0.03-4.4l0.23,0.01c0.28,1.12,0.62,2,1.01,2.65c0.74,1.19,1.66,1.79,2.77,1.79
			c0.78,0,1.42-0.27,1.92-0.82c0.51-0.55,0.76-1.24,0.76-2.08c0-0.36-0.06-0.73-0.17-1.11c-0.11-0.38-0.26-0.7-0.45-0.97
			c-0.2-0.28-0.47-0.54-0.82-0.8c-0.35-0.26-0.9-0.58-1.62-0.97c-0.64-0.34-1.13-0.63-1.47-0.86c-0.34-0.23-0.62-0.47-0.82-0.71
			c-0.58-0.67-0.87-1.48-0.87-2.44c0-0.59,0.11-1.16,0.34-1.7c0.23-0.55,0.54-1.02,0.95-1.41c0.71-0.7,1.56-1.04,2.54-1.04
			c0.32,0,0.61,0.03,0.88,0.1c0.27,0.07,0.63,0.2,1.08,0.4c0.34,0.14,0.57,0.23,0.69,0.27c0.12,0.04,0.23,0.06,0.32,0.06
			c0.24,0,0.39-0.18,0.48-0.54h0.23l0.07,4.23h-0.23c-0.18-0.67-0.34-1.19-0.47-1.55c-0.13-0.36-0.29-0.69-0.47-1
			c-0.33-0.55-0.69-0.96-1.09-1.23c-0.4-0.27-0.86-0.4-1.37-0.4c-0.75,0-1.35,0.27-1.79,0.81c-0.18,0.22-0.33,0.48-0.43,0.78
			c-0.1,0.3-0.16,0.6-0.16,0.9c0,1.19,0.72,2.14,2.17,2.87l1.42,0.73c1.1,0.55,1.89,1.15,2.37,1.81c0.55,0.74,0.83,1.6,0.83,2.58
			c0,0.65-0.12,1.28-0.37,1.87c-0.35,0.83-0.88,1.47-1.58,1.92c-0.7,0.45-1.53,0.67-2.48,0.67c-0.87,0-1.71-0.18-2.51-0.54
			c-0.42-0.19-0.67-0.3-0.75-0.33c-0.08-0.03-0.17-0.04-0.27-0.04c-0.32,0-0.55,0.17-0.67,0.51H37.84z"/>
		<path class="st0" d="M59.02,32.7v0.24c-0.38,0.02-0.7,0.08-0.94,0.17c-0.24,0.09-0.45,0.24-0.64,0.45
			c-0.26,0.28-0.42,0.68-0.49,1.18c-0.04,0.38-0.06,0.81-0.06,1.3v7.85c0,0.59,0.03,1.05,0.08,1.4c0.05,0.34,0.14,0.61,0.26,0.82
			c0.18,0.28,0.4,0.5,0.68,0.63c0.28,0.14,0.64,0.22,1.1,0.25v0.24h-6.47V47c0.39-0.02,0.71-0.08,0.95-0.18
			c0.24-0.1,0.45-0.24,0.63-0.44c0.22-0.23,0.36-0.51,0.44-0.86c0.07-0.35,0.11-0.89,0.11-1.62v-7.85c0-0.73-0.04-1.27-0.11-1.62
			c-0.07-0.35-0.22-0.64-0.44-0.86c-0.18-0.21-0.39-0.35-0.64-0.45c-0.24-0.09-0.56-0.15-0.94-0.17V32.7H59.02z"/>
		<path class="st0" d="M65.01,47.2l0.03-4.4l0.23,0.01c0.28,1.12,0.62,2,1.01,2.65c0.74,1.19,1.66,1.79,2.77,1.79
			c0.78,0,1.42-0.27,1.92-0.82c0.51-0.55,0.76-1.24,0.76-2.08c0-0.36-0.06-0.73-0.17-1.11c-0.11-0.38-0.26-0.7-0.45-0.97
			c-0.2-0.28-0.47-0.54-0.82-0.8c-0.35-0.26-0.9-0.58-1.62-0.97c-0.64-0.34-1.13-0.63-1.47-0.86c-0.34-0.23-0.62-0.47-0.82-0.71
			c-0.58-0.67-0.87-1.48-0.87-2.44c0-0.59,0.11-1.16,0.34-1.7c0.23-0.55,0.54-1.02,0.95-1.41c0.71-0.7,1.56-1.04,2.54-1.04
			c0.32,0,0.61,0.03,0.88,0.1c0.27,0.07,0.63,0.2,1.08,0.4c0.34,0.14,0.57,0.23,0.69,0.27c0.12,0.04,0.23,0.06,0.32,0.06
			c0.24,0,0.39-0.18,0.48-0.54h0.23l0.07,4.23h-0.23c-0.18-0.67-0.34-1.19-0.47-1.55c-0.13-0.36-0.29-0.69-0.47-1
			c-0.33-0.55-0.69-0.96-1.09-1.23c-0.4-0.27-0.86-0.4-1.37-0.4c-0.75,0-1.35,0.27-1.79,0.81c-0.18,0.22-0.33,0.48-0.43,0.78
			c-0.1,0.3-0.16,0.6-0.16,0.9c0,1.19,0.72,2.14,2.17,2.87l1.42,0.73c1.1,0.55,1.89,1.15,2.37,1.81c0.55,0.74,0.83,1.6,0.83,2.58
			c0,0.65-0.12,1.28-0.37,1.87c-0.35,0.83-0.88,1.47-1.58,1.92c-0.7,0.45-1.53,0.67-2.48,0.67c-0.87,0-1.71-0.18-2.51-0.54
			c-0.42-0.19-0.67-0.3-0.75-0.33c-0.08-0.03-0.17-0.04-0.27-0.04c-0.32,0-0.55,0.17-0.67,0.51H65.01z"/>
		<path class="st0" d="M85.09,33.03c-0.36,0-0.74,0.01-1.14,0.04c-0.87,0.06-1.52,0.2-1.94,0.42c-0.43,0.22-0.78,0.6-1.05,1.14
			c-0.25,0.5-0.45,1.17-0.58,2.02l-0.19-0.02l0.15-3.93h11.46l0.15,3.93l-0.19,0.02c-0.15-0.99-0.39-1.73-0.72-2.24
			c-0.32-0.51-0.8-0.87-1.42-1.09c-0.53-0.19-1.41-0.29-2.67-0.29V43.9c0,0.72,0.03,1.26,0.1,1.61c0.06,0.35,0.18,0.64,0.36,0.87
			c0.16,0.21,0.34,0.36,0.54,0.45c0.2,0.09,0.46,0.15,0.78,0.17v0.24H83.3V47c0.33-0.02,0.59-0.08,0.79-0.17
			c0.2-0.09,0.38-0.24,0.54-0.45c0.18-0.23,0.3-0.51,0.36-0.86c0.06-0.35,0.1-0.89,0.1-1.62V33.03z"/>
		<path class="st0" d="M139.66,33.03c-0.36,0-0.74,0.01-1.14,0.04c-0.87,0.06-1.52,0.2-1.94,0.42c-0.43,0.22-0.78,0.6-1.05,1.14
			c-0.25,0.5-0.45,1.17-0.58,2.02l-0.19-0.02l0.15-3.93h11.46l0.15,3.93l-0.19,0.02c-0.15-0.99-0.39-1.73-0.72-2.24
			c-0.32-0.51-0.8-0.87-1.42-1.09c-0.53-0.19-1.41-0.29-2.67-0.29V43.9c0,0.72,0.03,1.26,0.1,1.61c0.06,0.35,0.18,0.64,0.36,0.87
			c0.16,0.21,0.34,0.36,0.54,0.45c0.2,0.09,0.46,0.15,0.78,0.17v0.24h-5.41V47c0.33-0.02,0.59-0.08,0.79-0.17
			c0.2-0.09,0.38-0.24,0.54-0.45c0.18-0.23,0.3-0.51,0.36-0.86c0.06-0.35,0.1-0.89,0.1-1.62V33.03z"/>
		<path class="st0" d="M111.51,47.24h-6.65V47c0.6-0.06,1.02-0.16,1.25-0.32c0.42-0.28,0.63-0.66,0.63-1.15
			c0-0.29-0.09-0.68-0.28-1.17l-0.17-0.45l-0.97-2.51h-4.45l-0.53,1.47l-0.25,0.66c-0.3,0.78-0.46,1.4-0.46,1.84
			c0,0.26,0.06,0.51,0.17,0.73c0.11,0.23,0.26,0.41,0.45,0.55c0.26,0.19,0.6,0.31,1.01,0.34v0.24h-4.53V47
			c0.36-0.02,0.67-0.11,0.94-0.28c0.27-0.16,0.53-0.43,0.79-0.79c0.22-0.29,0.43-0.67,0.63-1.12c0.21-0.46,0.48-1.15,0.81-2.06
			l3.7-10.04h0.58l4.4,11.2c0.33,0.85,0.59,1.45,0.79,1.81s0.41,0.64,0.64,0.82c0.16,0.13,0.35,0.23,0.56,0.29
			c0.21,0.07,0.52,0.13,0.94,0.18V47.24z M105.15,40.96l-2.12-5.52l-2,5.52H105.15z"/>
		<path class="st0" d="M117.56,34.63v9.27c0,0.73,0.04,1.27,0.12,1.62c0.08,0.35,0.22,0.64,0.43,0.86c0.19,0.21,0.4,0.36,0.64,0.45
			c0.24,0.09,0.55,0.15,0.94,0.17v0.24h-4.66V47c0.38-0.02,0.7-0.08,0.94-0.17c0.24-0.09,0.45-0.24,0.64-0.45
			c0.21-0.23,0.35-0.52,0.43-0.87c0.08-0.35,0.12-0.89,0.12-1.61v-7.86c0-0.72-0.04-1.25-0.12-1.6c-0.08-0.35-0.22-0.64-0.43-0.87
			c-0.18-0.21-0.39-0.35-0.63-0.45c-0.24-0.09-0.55-0.15-0.95-0.17V32.7h3.9l8.22,11.04v-7.69c0-0.73-0.04-1.27-0.12-1.62
			c-0.08-0.35-0.22-0.64-0.43-0.86c-0.19-0.21-0.4-0.35-0.64-0.45c-0.24-0.09-0.55-0.15-0.94-0.17V32.7h4.67v0.24
			c-0.67,0-1.2,0.21-1.58,0.62c-0.21,0.23-0.35,0.52-0.43,0.87c-0.08,0.35-0.12,0.89-0.12,1.6v11.21h-0.46L117.56,34.63z"/>
		<path class="st0" d="M152.67,47.2l0.03-4.4l0.23,0.01c0.28,1.12,0.62,2,1.01,2.65c0.74,1.19,1.66,1.79,2.77,1.79
			c0.78,0,1.42-0.27,1.92-0.82c0.51-0.55,0.76-1.24,0.76-2.08c0-0.36-0.06-0.73-0.17-1.11c-0.11-0.38-0.26-0.7-0.45-0.97
			c-0.2-0.28-0.47-0.54-0.82-0.8c-0.35-0.26-0.9-0.58-1.62-0.97c-0.64-0.34-1.13-0.63-1.47-0.86c-0.34-0.23-0.62-0.47-0.82-0.71
			c-0.58-0.67-0.87-1.48-0.87-2.44c0-0.59,0.11-1.16,0.34-1.7c0.23-0.55,0.54-1.02,0.95-1.41c0.71-0.7,1.56-1.04,2.54-1.04
			c0.32,0,0.61,0.03,0.88,0.1c0.27,0.07,0.63,0.2,1.08,0.4c0.34,0.14,0.57,0.23,0.69,0.27c0.12,0.04,0.23,0.06,0.32,0.06
			c0.24,0,0.39-0.18,0.48-0.54h0.23l0.07,4.23h-0.23c-0.18-0.67-0.34-1.19-0.47-1.55c-0.13-0.36-0.29-0.69-0.47-1
			c-0.33-0.55-0.69-0.96-1.09-1.23c-0.4-0.27-0.86-0.4-1.37-0.4c-0.75,0-1.35,0.27-1.79,0.81c-0.18,0.22-0.33,0.48-0.43,0.78
			c-0.1,0.3-0.16,0.6-0.16,0.9c0,1.19,0.72,2.14,2.17,2.87l1.42,0.73c1.1,0.55,1.89,1.15,2.37,1.81c0.55,0.74,0.83,1.6,0.83,2.58
			c0,0.65-0.12,1.28-0.37,1.87c-0.35,0.83-0.88,1.47-1.58,1.92c-0.7,0.45-1.53,0.67-2.48,0.67c-0.87,0-1.71-0.18-2.51-0.54
			c-0.42-0.19-0.67-0.3-0.75-0.33c-0.08-0.03-0.17-0.04-0.27-0.04c-0.32,0-0.55,0.17-0.67,0.51H152.67z"/>
	</g>
	<g>
		<path class="st1" d="M80.14,10.67c-0.4-5.55-2.28-8.26-5.6-8.05c-0.8,0.05-1.6,0.29-2.4,0.73c-0.78,0.43-1.64,1.13-2.54,2.08
			c-0.98,1.08-1.85,2.27-2.57,3.54c-0.93,1.66-1.73,3.4-2.41,5.19c0-0.06,0.01-0.13,0.01-0.19c0.03-0.64,0.05-1.22,0.07-1.76
			c0.02-0.54,0.02-1.3,0.01-2.26c-0.01-0.99-0.02-1.56-0.03-1.76c-0.04-0.68-0.15-1.18-0.33-1.53c-0.27-0.51-0.65-0.6-0.92-0.58
			c-0.5,0.03-1.21,0.51-2.23,1.52c-0.96,0.98-1.92,2.04-2.86,3.17c-0.94,1.12-1.6,1.94-1.95,2.41l-0.08,0.09
			c-0.88,1.13-1.61,2.11-2.15,2.93c-0.75,1.12-0.91,1.48-0.96,1.65l-0.01,0.05l0.01,0.11c0,0.08,0.04,0.16,0.1,0.21l0.11,0.08
			l0.11-0.01c0.14-0.01,0.27-0.06,0.84-0.74c0.51-0.58,1.21-1.41,2.08-2.48c4.81-6.25,6.36-7.49,6.86-7.63
			C63.32,7.5,63.37,7.66,63.39,8c0.06,0.95,0.07,1.94,0.05,2.96c-0.05,1.66-0.13,3.37-0.24,5.06c-0.11,1.69-0.21,2.92-0.29,3.64
			c-0.28,1.16-0.56,2.32-0.81,3.46c-1.63-0.86-2.87-1.59-3.7-2.17c-0.78-0.53-0.92-0.57-1.04-0.56l-0.11,0.01l-0.17,0.22l0.02,0.12
			c0.02,0.13,0.05,0.27,1.28,1.3c0.84,0.73,2.01,1.51,3.48,2.31c-0.32,1.6-0.63,3.49-0.92,5.61c-0.3,2.21-0.49,4.04-0.57,5.43
			c-0.08,1.4-0.11,2.43-0.07,3.08l0.02,0.24c0.04,0.42,0.11,0.72,0.22,0.92c0.13,0.25,0.34,0.38,0.59,0.38c0.01,0,0.03,0,0.04,0
			c0.28-0.02,0.47-0.11,0.57-0.28c0.12-0.2,0.32-0.68,0.62-2.6c0.21-1.39,0.43-3,0.64-4.78c0.21-1.77,0.39-3.39,0.53-4.82
			c0.11-1.04,0.18-1.78,0.23-2.24c2.04,1.04,4.23,1.5,6.54,1.36c3.4-0.21,5.94-1.71,7.56-4.47C79.65,19.07,80.42,15.2,80.14,10.67
			L80.14,10.67z M78.79,10.71c0.13,2.15,0.04,4.07-0.26,5.73c-1.15,5.7-3.83,8.6-8.19,8.87c-2.28,0.14-4.45-0.32-6.45-1.36
			c0.12-1.32,0.23-2.62,0.33-3.86c0.46-1.88,1.12-3.96,1.98-6.19c0.85-2.21,2.1-4.43,3.7-6.58c1.57-2.11,3.16-3.22,4.75-3.32
			C77.07,3.84,78.46,6.11,78.79,10.71z"/>
		<path class="st1" d="M103.81,18.3l0.02-0.46l-0.33,0.01l-0.03,0.32c-0.26,0.44-0.43,0.79-0.51,1.04c-1.3,2.54-2.24,3.82-2.8,3.85
			l-0.14,0.01c-0.05,0-0.12-0.26-0.22-0.79c0.1-1.77,0.14-2.75,0.12-2.97l0-0.08c-0.28-1.11-0.65-1.65-1.13-1.63l-0.95,0.5
			l-1.27,1.54c-0.44,0.82-0.68,1.23-0.72,1.23c-0.23,0.48-0.46,0.85-0.69,1.11c0.1-0.71,0.29-1.68,0.57-2.92
			c0.09-0.08,0.16-0.12,0.21-0.12l-0.01-0.24l-0.06-0.16c-0.01,0-0.01,0-0.02,0c0.16-0.71,0.35-1.49,0.56-2.35
			c0.07-0.95,0.26-1.83,0.57-2.65c0.5-2.61,0.81-4.1,0.91-4.48c-0.12-0.15-0.28-0.28-0.47-0.38c-0.25,0.01-0.51,0.69-0.79,2.04
			c-1.02,4.11-1.59,6.5-1.69,7.16c-0.08,0.42-0.19,0.88-0.32,1.39c-0.92,0.2-1.9,0.8-2.94,1.82c-0.53,0.48-0.9,0.84-1.09,1.09
			l-0.12-0.07c-0.74-1.21-1.14-2.42-1.19-3.63c-0.02-0.45,0.31-0.76,0.99-0.92c0.08,0,0.12,0.05,0.12,0.15
			c0.02,0.37-0.04,0.88-0.16,1.53c0.12,0.31,0.28,0.47,0.48,0.46c0.07-0.06,0.13-0.09,0.17-0.09c0.3-0.01,0.52-0.66,0.65-1.95
			c-0.03-0.77-0.4-1.24-1.09-1.39c-0.46,0.09-0.95,0.27-1.46,0.55c-0.49,0.02-0.75,0.65-0.77,1.88c0.01,0.2,0.04,0.41,0.08,0.64
			c-1.04,1.21-1.68,1.87-1.9,1.99c0.05-0.77,0.05-1.28-0.02-1.52c-0.31-0.8-0.5-1.18-0.55-1.16c-0.14-0.5-0.78-0.66-1.92-0.47
			l-0.18,0.07c-0.21,0.09-0.32,0.15-0.31,0.19c-0.63,0.24-1.07,0.62-1.33,1.12c-0.87,1.04-1.07,2.39-0.62,4.05
			c0.13,0.35,0.26,0.68,0.4,0.96c0.63,0.96,1.36,1.28,2.17,0.96c0.14-0.1,0.26-0.17,0.36-0.22c0.35-0.36,0.86-1.06,1.51-2.09
			c0.33-0.12,0.72-0.41,1.18-0.85c0.64-0.79,1.13-1.47,1.48-2.04c0.26,0.79,0.67,1.69,1.23,2.7l0.01,0.16l-0.05,0.16
			c-1.23,1.44-2.04,2.55-2.42,3.31c-0.54,0.7-0.8,1.28-0.78,1.72l0.02,0.4c0.03,0.75,0.57,1.2,1.6,1.37
			c0.85-0.21,1.57-0.7,2.16-1.46c0.78-0.75,1.25-1.68,1.42-2.78c-0.04-0.88-0.23-1.67-0.56-2.38l0.21-0.41
			c1.19-1.03,2.14-1.84,2.86-2.46c-0.02,0.08-0.04,0.15-0.07,0.23l0.09,0c-0.44,2.05-0.66,3.15-0.66,3.29l0.03,0.34
			c-0.09,0-0.18,0.44-0.28,1.31c0.01,0,0.01-0.01,0.01-0.01c-0.01,0.06-0.01,0.13-0.02,0.23c0.03,0.4,0.32,0.61,0.87,0.64
			c0.49-0.7,0.95-1.72,1.36-3.06c1.4-2.66,2.45-4.2,3.13-4.6c0.07,0,0.11,0.09,0.13,0.27c-0.11,1.47-0.14,2.42-0.1,2.85l0.09,1.04
			c0.35,0.98,0.85,1.46,1.51,1.43c0.39-0.02,0.91-0.43,1.56-1.25l0.97-1.3l0.95-2.02c0.05-0.74,0.12-1.24,0.2-1.51
			C104,18.39,103.93,18.31,103.81,18.3z M83.7,24.26c-0.25,0.1-0.47,0.13-0.64,0.07c-0.24-0.06-0.47-0.49-0.69-1.31l-0.05-0.18
			c-0.22-0.78-0.13-1.59,0.25-2.43l0.01,0c0.04,0.16,0.06,0.38,0.09,0.68c0.04,0.15,0.07,0.21,0.09,0.2
			c0.24,0.84,0.81,1.53,1.73,2.06C84.45,23.51,84.19,23.81,83.7,24.26z M85.21,22l-0.14,0.05c-0.51,0.21-0.95-0.17-1.31-1.14
			c-0.25-0.9-0.03-1.48,0.65-1.75c0.09-0.04,0.15-0.03,0.17,0.05c0.35-0.14,0.67,0.24,0.96,1.14C85.59,20.87,85.48,21.42,85.21,22z
			 M90.34,26.93c-0.88,1.27-1.63,1.91-2.25,1.94c-0.25,0.01-0.38-0.06-0.41-0.22l0-0.08c-0.02-0.53,0.83-1.88,2.56-4.04l0.23-0.01
			c0.09,0.34,0.14,0.58,0.15,0.71l0.03,0.64C90.43,26.51,90.33,26.86,90.34,26.93z"/>
	</g>
</g>
</svg>
