<?xml version="1.0" encoding="utf-8"?>
<!-- Generator: Adobe Illustrator 25.0.1, SVG Export Plug-In . SVG Version: 6.00 Build 0)  -->
<svg version="1.1" id="Capa_1" xmlns="http://www.w3.org/2000/svg" xmlns:xlink="http://www.w3.org/1999/xlink" x="0px" y="0px"
	 viewBox="0 0 50 50" style="enable-background:new 0 0 50 50;" xml:space="preserve">
<style type="text/css">
	.st0{fill:#FFFFFF;}
</style>
<path class="st0" d="M39.17,17.74c1.45-1.03,2.67-2.31,3.67-3.79v0c-1.33,0.58-2.74,0.97-4.21,1.16c1.52-0.91,2.67-2.33,3.22-4.04
	c-1.41,0.84-2.98,1.44-4.64,1.77c-1.34-1.43-3.26-2.31-5.34-2.31c-4.05,0-7.31,3.29-7.31,7.32c0,0.58,0.05,1.14,0.17,1.67
	c-6.08-0.3-11.46-3.21-15.07-7.65c-0.63,1.1-1,2.35-1,3.7c0,2.53,1.3,4.78,3.25,6.08c-1.18-0.02-2.33-0.37-3.31-0.9v0.08
	c0,3.56,2.54,6.51,5.86,7.19c-0.6,0.16-1.24,0.24-1.92,0.24c-0.47,0-0.94-0.03-1.39-0.12c0.95,2.89,3.64,5.03,6.83,5.09
	c-2.49,1.94-5.65,3.12-9.07,3.12c-0.6,0-1.18-0.03-1.75-0.1c3.24,2.09,7.08,3.28,11.22,3.28C31.29,39.49,39.7,28.73,39.17,17.74"/>
</svg>
